<svg width="90" height="90" viewBox="0 0 90 90" fill="none" xmlns="http://www.w3.org/2000/svg">
<path d="M11.5973 34.998H78.4371" stroke="#12223E" stroke-width="6" stroke-linecap="round" stroke-linejoin="round"/>
<path fill-rule="evenodd" clip-rule="evenodd" d="M24.8422 49.6436C24.8422 47.7106 26.4092 46.1436 28.3422 46.1436H28.377C30.31 46.1436 31.877 47.7106 31.877 49.6436C31.877 51.5766 30.31 53.1436 28.377 53.1436H28.3422C26.4092 53.1436 24.8422 51.5766 24.8422 49.6436ZM45.0172 46.1436C43.0842 46.1436 41.5172 47.7106 41.5172 49.6436C41.5172 51.5766 43.0842 53.1436 45.0172 53.1436H45.052C46.9849 53.1436 48.552 51.5766 48.552 49.6436C48.552 47.7106 46.9849 46.1436 45.052 46.1436H45.0172ZM61.6578 46.1436C59.7248 46.1436 58.1578 47.7106 58.1578 49.6436C58.1578 51.5766 59.7248 53.1436 61.6578 53.1436H61.6926C63.6256 53.1436 65.1926 51.5766 65.1926 49.6436C65.1926 47.7106 63.6256 46.1436 61.6926 46.1436H61.6578ZM61.6578 60.7179C59.7248 60.7179 58.1578 62.2849 58.1578 64.2179C58.1578 66.1509 59.7248 67.7179 61.6578 67.7179H61.6926C63.6256 67.7179 65.1926 66.1509 65.1926 64.2179C65.1926 62.2849 63.6256 60.7179 61.6926 60.7179H61.6578ZM41.5172 64.2179C41.5172 62.2849 43.0842 60.7179 45.0172 60.7179H45.052C46.9849 60.7179 48.552 62.2849 48.552 64.2179C48.552 66.1509 46.9849 67.7179 45.052 67.7179H45.0172C43.0842 67.7179 41.5172 66.1509 41.5172 64.2179ZM28.3422 60.7179C26.4092 60.7179 24.8422 62.2849 24.8422 64.2179C24.8422 66.1509 26.4092 67.7179 28.3422 67.7179H28.377C30.31 67.7179 31.877 66.1509 31.877 64.2179C31.877 62.2849 30.31 60.7179 28.377 60.7179H28.3422Z" fill="#C3293D"/>
<path d="M60.1641 7.23212V19.5725" stroke="#12223E" stroke-width="6" stroke-linecap="round" stroke-linejoin="round"/>
<path d="M29.8707 7.23212V19.5725" stroke="#12223E" stroke-width="6" stroke-linecap="round" stroke-linejoin="round"/>
<path fill-rule="evenodd" clip-rule="evenodd" d="M60.8935 13.1541H29.1411C18.1285 13.1541 11.25 19.2889 11.25 30.5655V64.5016C11.25 75.9555 18.1285 82.2321 29.1411 82.2321H60.8588C71.9061 82.2321 78.7499 76.0619 78.7499 64.7853V30.5655C78.7846 19.2889 71.9408 13.1541 60.8935 13.1541Z" stroke="#12223E" stroke-width="6" stroke-linecap="round" stroke-linejoin="round"/>
</svg>
