<svg width="136" height="23" viewBox="0 0 136 23" fill="none" xmlns="http://www.w3.org/2000/svg">
<path d="M10.816 22.336C12.3093 22.336 13.644 22.084 14.82 21.58C16.0147 21.076 17.0227 20.4133 17.844 19.592C18.6653 18.752 19.2533 17.8373 19.608 16.848L16.192 15.252C15.7813 16.2973 15.1093 17.1653 14.176 17.856C13.2613 18.528 12.1413 18.864 10.816 18.864C9.50933 18.864 8.36133 18.556 7.372 17.94C6.38267 17.324 5.608 16.4747 5.048 15.392C4.488 14.2907 4.208 13.012 4.208 11.556C4.208 10.1 4.488 8.83067 5.048 7.748C5.608 6.64667 6.38267 5.79733 7.372 5.2C8.36133 4.584 9.50933 4.276 10.816 4.276C12.1413 4.276 13.2613 4.62133 14.176 5.312C15.1093 5.984 15.7813 6.84267 16.192 7.888L19.608 6.292C19.2533 5.30267 18.6653 4.39733 17.844 3.576C17.0227 2.736 16.0147 2.064 14.82 1.56C13.644 1.056 12.3093 0.803999 10.816 0.803999C9.32267 0.803999 7.94133 1.07467 6.672 1.616C5.40267 2.13867 4.30133 2.88533 3.368 3.856C2.43467 4.808 1.70667 5.94667 1.184 7.272C0.661333 8.57867 0.4 10.0067 0.4 11.556C0.4 13.1053 0.661333 14.5427 1.184 15.868C1.70667 17.1747 2.43467 18.3133 3.368 19.284C4.30133 20.2547 5.40267 21.0107 6.672 21.552C7.94133 22.0747 9.32267 22.336 10.816 22.336ZM22.5916 22H26.2596V0.803999H22.5916V22ZM29.8463 5.06H33.5143V1.14H29.8463V5.06ZM29.8463 22H33.5143V6.768H29.8463V22ZM37.101 22H40.769V13.068C40.769 12.0787 41.049 11.2853 41.609 10.688C42.1876 10.0907 42.9343 9.792 43.849 9.792C44.7636 9.792 45.501 10.0907 46.061 10.688C46.6396 11.2667 46.929 12.06 46.929 13.068V22H50.597V12.2C50.597 11.0613 50.3543 10.0627 49.869 9.204C49.3836 8.32667 48.7023 7.64533 47.825 7.16C46.9663 6.67467 45.977 6.432 44.857 6.432C43.905 6.432 43.0463 6.61867 42.281 6.992C41.5343 7.36533 40.9556 7.916 40.545 8.644V6.768H37.101V22ZM53.8986 5.06H57.5666V1.14H53.8986V5.06ZM53.8986 22H57.5666V6.768H53.8986V22Z" fill="#12223E"/>
<path d="M61.4613 22H65.2693V14.3H69.2453C70.664 14.3 71.9146 14.048 72.9973 13.544C74.08 13.0213 74.9293 12.2653 75.5453 11.276C76.18 10.2867 76.4973 9.10133 76.4973 7.72C76.4973 6.30133 76.1893 5.10667 75.5733 4.136C74.9573 3.16533 74.0986 2.428 72.9973 1.924C71.9146 1.40133 70.664 1.14 69.2453 1.14H61.4613V22ZM65.2693 10.94V4.5H69.3013C70.328 4.5 71.1493 4.78933 71.7653 5.368C72.3813 5.94667 72.6893 6.73067 72.6893 7.72C72.6893 8.69067 72.3813 9.47467 71.7653 10.072C71.1493 10.6507 70.328 10.94 69.3013 10.94H65.2693ZM86.1867 22.336C87.736 22.336 89.0894 21.9907 90.2467 21.3C91.4227 20.5907 92.244 19.6947 92.7107 18.612L89.7427 17.156C89.4067 17.7347 88.94 18.2107 88.3427 18.584C87.764 18.9387 87.0547 19.116 86.2147 19.116C85.1134 19.116 84.1894 18.78 83.4427 18.108C82.696 17.436 82.2667 16.54 82.1547 15.42H93.1307C93.2054 15.2147 93.252 14.9813 93.2707 14.72C93.308 14.44 93.3267 14.16 93.3267 13.88C93.3267 12.5173 93.0374 11.276 92.4587 10.156C91.88 9.036 91.04 8.14 89.9387 7.468C88.8374 6.77733 87.4934 6.432 85.9067 6.432C84.488 6.432 83.2 6.77733 82.0427 7.468C80.904 8.15867 79.9987 9.10133 79.3267 10.296C78.6734 11.472 78.3467 12.8253 78.3467 14.356C78.3467 15.8307 78.6734 17.1747 79.3267 18.388C79.98 19.6013 80.8947 20.5627 82.0707 21.272C83.2467 21.9813 84.6187 22.336 86.1867 22.336ZM85.9067 9.456C86.8774 9.456 87.68 9.75467 88.3147 10.352C88.968 10.9307 89.332 11.6867 89.4067 12.62H82.2387C82.444 11.612 82.8734 10.8373 83.5267 10.296C84.1987 9.736 84.992 9.456 85.9067 9.456ZM103.391 22.336C104.381 22.336 105.295 22.168 106.135 21.832C106.975 21.4773 107.675 20.9733 108.235 20.32V22H111.707V0.803999H108.039V8.308C106.901 7.05733 105.342 6.432 103.363 6.432C101.926 6.432 100.619 6.78667 99.4432 7.496C98.2859 8.18667 97.3712 9.13867 96.6992 10.352C96.0272 11.5467 95.6912 12.8907 95.6912 14.384C95.6912 15.8773 96.0272 17.2307 96.6992 18.444C97.3712 19.6387 98.2859 20.5907 99.4432 21.3C100.601 21.9907 101.917 22.336 103.391 22.336ZM103.783 18.976C102.962 18.976 102.225 18.78 101.571 18.388C100.918 17.996 100.405 17.4547 100.031 16.764C99.6766 16.0547 99.4992 15.2613 99.4992 14.384C99.4992 13.5067 99.6766 12.7227 100.031 12.032C100.405 11.3413 100.918 10.8 101.571 10.408C102.225 9.99733 102.962 9.792 103.783 9.792C104.605 9.792 105.333 9.988 105.967 10.38C106.621 10.772 107.125 11.3133 107.479 12.004C107.853 12.6947 108.039 13.488 108.039 14.384C108.039 15.28 107.853 16.0733 107.479 16.764C107.125 17.4547 106.621 17.996 105.967 18.388C105.333 18.78 104.605 18.976 103.783 18.976ZM115.32 5.06H118.988V1.14H115.32V5.06ZM115.32 22H118.988V6.768H115.32V22ZM127.194 22.336C129.173 22.336 130.76 21.6827 131.954 20.376V22H135.426V11.864C135.426 10.8 135.156 9.85733 134.614 9.036C134.073 8.21467 133.326 7.58 132.374 7.132C131.441 6.66533 130.349 6.432 129.098 6.432C127.568 6.432 126.205 6.796 125.01 7.524C123.816 8.252 122.994 9.21333 122.546 10.408L125.542 11.864C125.822 11.1733 126.261 10.6227 126.858 10.212C127.456 9.78267 128.156 9.568 128.958 9.568C129.798 9.568 130.47 9.792 130.974 10.24C131.497 10.6693 131.758 11.2107 131.758 11.864V12.368L127.222 13.096C125.43 13.3947 124.105 13.964 123.246 14.804C122.388 15.644 121.958 16.6987 121.958 17.968C121.958 19.312 122.434 20.376 123.386 21.16C124.338 21.944 125.608 22.336 127.194 22.336ZM125.766 17.828C125.766 16.764 126.485 16.092 127.922 15.812L131.758 15.168V15.784C131.758 16.8293 131.394 17.716 130.666 18.444C129.957 19.172 129.024 19.536 127.866 19.536C127.25 19.536 126.746 19.3867 126.354 19.088C125.962 18.7707 125.766 18.3507 125.766 17.828Z" fill="#C3293D"/>
</svg>
