<svg width="90" height="90" viewBox="0 0 90 90" fill="none" xmlns="http://www.w3.org/2000/svg">
<path fill-rule="evenodd" clip-rule="evenodd" d="M70.7437 19.2142C72.3825 19.788 73.4775 21.333 73.4775 23.0692V48.468C73.4775 55.5667 70.8975 62.343 66.3412 67.593C64.05 70.2367 61.1512 72.2955 58.0725 73.9605L44.73 81.168L31.365 73.9567C28.2825 72.2917 25.38 70.2367 23.085 67.5892C18.525 62.3392 15.9375 55.5592 15.9375 48.453V23.0692C15.9375 21.333 17.0325 19.788 18.6712 19.2142L43.3537 10.5405C44.2312 10.233 45.1875 10.233 46.0612 10.5405L70.7437 19.2142Z" stroke="#130F26" stroke-width="6" stroke-linecap="round" stroke-linejoin="round"/>
<path d="M34.9594 44.6914L42.0544 51.7901L56.6719 37.1726" stroke="#C3293D" stroke-width="6" stroke-linecap="round" stroke-linejoin="round"/>
</svg>
